<svg width="114" height="38" viewBox="0 0 114 38" fill="none" xmlns="http://www.w3.org/2000/svg">
<path d="M17.5469 0.671875C19.9062 0.671875 22.1406 0.882812 24.25 1.30469C26.3594 1.71094 28.1953 2.28906 29.7578 3.03906C31.3359 3.78906 32.5859 4.6875 33.5078 5.73438C34.4297 6.76562 34.8906 7.90625 34.8906 9.15625V13.2812H28.7031V10.9844C28.7031 10.3125 28.4453 9.67188 27.9297 9.0625C27.4141 8.4375 26.6719 7.89844 25.7031 7.44531C24.75 6.97656 23.5859 6.60938 22.2109 6.34375C20.8359 6.0625 19.2812 5.92188 17.5469 5.92188C15.875 5.92188 14.3516 6.05469 12.9766 6.32031C11.6016 6.57031 10.4219 6.92188 9.4375 7.375C8.45312 7.82812 7.6875 8.36719 7.14062 8.99219C6.60938 9.60156 6.34375 10.2656 6.34375 10.9844V27.5312C6.34375 28.2188 6.60938 28.8672 7.14062 29.4766C7.6875 30.0859 8.45312 30.6172 9.4375 31.0703C10.4219 31.5078 11.6016 31.8594 12.9766 32.125C14.3516 32.375 15.875 32.5 17.5469 32.5C19.2812 32.5 20.8359 32.3672 22.2109 32.1016C23.5859 31.8203 24.75 31.4531 25.7031 31C26.6719 30.5469 27.4141 30.0234 27.9297 29.4297C28.4453 28.8203 28.7031 28.1875 28.7031 27.5312V25.1875H34.8906V29.3125C34.8906 30.1406 34.6797 30.9297 34.2578 31.6797C33.8359 32.4141 33.2422 33.0938 32.4766 33.7188C31.7266 34.3438 30.8203 34.9062 29.7578 35.4062C28.7109 35.8906 27.5391 36.3125 26.2422 36.6719C24.9609 37.0156 23.5859 37.2812 22.1172 37.4688C20.6484 37.6562 19.125 37.75 17.5469 37.75C15.9688 37.75 14.4453 37.6562 12.9766 37.4688C11.5078 37.2812 10.125 37.0156 8.82812 36.6719C7.54688 36.3125 6.375 35.8906 5.3125 35.4062C4.26562 34.9062 3.35938 34.3438 2.59375 33.7188C1.84375 33.0938 1.25781 32.4141 0.835938 31.6797C0.414062 30.9297 0.203125 30.1406 0.203125 29.3125V9.15625C0.203125 8.32812 0.414062 7.53906 0.835938 6.78906C1.25781 6.03906 1.84375 5.35156 2.59375 4.72656C3.35938 4.10156 4.26562 3.53906 5.3125 3.03906C6.375 2.53906 7.54688 2.11719 8.82812 1.77344C10.125 1.41406 11.5078 1.14062 12.9766 0.953125C14.4453 0.765625 15.9688 0.671875 17.5469 0.671875ZM55.9375 1.32812C58.3438 1.32812 60.8906 1.41406 63.5781 1.58594C66.2812 1.75781 69.1094 2.09375 72.0625 2.59375V8.54688C71.2969 9.71875 70.3906 10.9531 69.3438 12.25C68.2969 13.5312 67.1562 14.8438 65.9219 16.1875C64.6875 17.5156 63.375 18.8594 61.9844 20.2188C60.5938 21.5781 59.1562 22.9141 57.6719 24.2266C56.1875 25.5234 54.6797 26.7812 53.1484 28C51.6328 29.2031 50.125 30.3281 48.625 31.375C49.9844 31.5156 51.5156 31.6094 53.2188 31.6562C53.6719 31.6875 54.125 31.7031 54.5781 31.7031C55.0469 31.7031 55.5156 31.7031 55.9844 31.7031C56.4531 31.7031 56.9141 31.7031 57.3672 31.7031C57.8203 31.7031 58.2969 31.6875 58.7969 31.6562C60.5156 31.6094 62.0625 31.5156 63.4375 31.375C64.8281 31.2188 66.0625 31.0469 67.1406 30.8594C67.2812 30.0781 67.4062 29.2266 67.5156 28.3047C67.625 27.3672 67.7188 26.3438 67.7969 25.2344H73.1406C73.0625 26.9062 72.9375 28.6172 72.7656 30.3672C72.6094 32.1016 72.375 33.8906 72.0625 35.7344C69.1094 36.2344 66.2891 36.5703 63.6016 36.7422C60.9141 36.9141 58.4062 37 56.0781 37C53.6562 37 51.0938 36.9141 48.3906 36.7422C45.6875 36.5703 42.875 36.2344 39.9531 35.7344V29.7812C42.2188 28.4844 44.5 27 46.7969 25.3281C49.1094 23.6406 51.3672 21.8281 53.5703 19.8906C55.7734 17.9531 57.8984 15.9141 59.9453 13.7734C62.0078 11.6172 63.9219 9.42188 65.6875 7.1875C65.2031 7.125 64.6797 7.0625 64.1172 7C63.5703 6.9375 62.9219 6.88281 62.1719 6.83594C61.4219 6.77344 60.5469 6.72656 59.5469 6.69531C58.5625 6.64844 57.4062 6.625 56.0781 6.625C54.5312 6.625 53.1953 6.64844 52.0703 6.69531C50.9453 6.74219 49.9531 6.80469 49.0938 6.88281C48.2344 6.96094 47.4609 7.05469 46.7734 7.16406C46.1016 7.25781 45.4375 7.35938 44.7812 7.46875C44.6562 8.25 44.5391 9.11719 44.4297 10.0703C44.3359 11.0078 44.25 12.0156 44.1719 13.0938H38.8281C38.9219 11.4375 39.0469 9.74219 39.2031 8.00781C39.375 6.25781 39.625 4.45312 39.9531 2.59375C42.875 2.09375 45.6797 1.75781 48.3672 1.58594C51.0547 1.41406 53.5781 1.32812 55.9375 1.32812ZM92.3125 1.1875C93.875 1.1875 95.4688 1.26562 97.0938 1.42188C98.7344 1.5625 100.328 1.82031 101.875 2.19531C103.422 2.55469 104.875 3.0625 106.234 3.71875C107.594 4.35938 108.781 5.17969 109.797 6.17969C110.828 7.16406 111.641 8.35156 112.234 9.74219C112.828 11.1172 113.125 12.7344 113.125 14.5938C113.125 17.1562 112.664 19.3203 111.742 21.0859C110.82 22.8359 109.562 24.25 107.969 25.3281C108.641 26.3594 109.219 27.4375 109.703 28.5625C110.188 29.6875 110.578 30.7812 110.875 31.8438C111.188 32.8906 111.414 33.8672 111.555 34.7734C111.695 35.6797 111.766 36.4375 111.766 37.0469H105.766C105.766 36.0938 105.688 35.1953 105.531 34.3516C105.375 33.4922 105.156 32.6797 104.875 31.9141C104.594 31.1328 104.266 30.3984 103.891 29.7109C103.531 29.0234 103.141 28.3594 102.719 27.7188C101.234 28.1406 99.6641 28.4453 98.0078 28.6328C96.3516 28.8047 94.625 28.8906 92.8281 28.8906C91.75 28.8906 90.6562 28.8594 89.5469 28.7969C88.4375 28.7344 87.3438 28.6562 86.2656 28.5625V36.9531H80.4531V2.54688C80.7969 2.4375 81.3438 2.30469 82.0938 2.14844C82.8594 1.99219 83.7578 1.84375 84.7891 1.70312C85.8359 1.5625 87 1.44531 88.2812 1.35156C89.5625 1.24219 90.9062 1.1875 92.3125 1.1875ZM94 6.34375C92.9688 6.34375 91.9844 6.39062 91.0469 6.48438C90.1094 6.5625 89.2891 6.65625 88.5859 6.76562C87.7422 6.89062 86.9688 7.03125 86.2656 7.1875V23.2188C86.7656 23.3281 87.3203 23.4219 87.9297 23.5C88.4453 23.5781 89.0469 23.6484 89.7344 23.7109C90.4219 23.7578 91.1562 23.7812 91.9375 23.7812C92.9531 23.7812 94.0234 23.7578 95.1484 23.7109C96.2891 23.6484 97.4141 23.5156 98.5234 23.3125C99.6484 23.1094 100.711 22.8125 101.711 22.4219C102.727 22.0156 103.617 21.4844 104.383 20.8281C105.164 20.1562 105.781 19.3281 106.234 18.3438C106.703 17.3594 106.938 16.1719 106.938 14.7812C106.938 13.625 106.75 12.6094 106.375 11.7344C106 10.8594 105.492 10.1094 104.852 9.48438C104.211 8.85938 103.461 8.34375 102.602 7.9375C101.758 7.53125 100.852 7.21094 99.8828 6.97656C98.9297 6.74219 97.9453 6.57812 96.9297 6.48438C95.9297 6.39062 94.9531 6.34375 94 6.34375Z" fill="#34547A"/>
</svg>
